HIERARCHY
ROOT hip
{
	OFFSET 0.000000 0.000000 0.000000
	CHANNELS 6 Xposition Yposition Zposition Zrotation Yrotation Xrotation 
	JOINT lhipjoint
	{
		OFFSET 0.000000 0.000000 0.000000
		CHANNELS 3 Zrotation Yrotation Xrotation
		JOINT lfemur
		{
			OFFSET 1.363060 -1.794630 0.839290
			CHANNELS 3 Zrotation Yrotation Xrotation
			JOINT ltibia
			{
				OFFSET 2.448110 -6.726130 0.000000
				CHANNELS 3 Zrotation Yrotation Xrotation
				JOINT lfoot
				{
					OFFSET 2.562200 -7.039590 0.000000
					CHANNELS 3 Zrotation Yrotation Xrotation
					JOINT ltoes
					{
						OFFSET 0.157640 -0.433110 2.322550
						CHANNELS 3 Zrotation Yrotation Xrotation
						End Site
						{
							OFFSET 0.000000 0.000000 0.000000
						}
					}
				}
			}
		}
	}
	JOINT rhipjoint
	{
		OFFSET 0.000000 0.000000 0.000000
		CHANNELS 3 Zrotation Yrotation Xrotation
		JOINT rfemur
		{
			OFFSET -1.305520 -1.794630 0.839290
			CHANNELS 3 Zrotation Yrotation Xrotation
			JOINT rtibia
			{
				OFFSET -2.542530 -6.985550 0.000000
				CHANNELS 3 Zrotation Yrotation Xrotation
				JOINT rfoot
				{
					OFFSET -2.568260 -7.056230 0.000000
					CHANNELS 3 Zrotation Yrotation Xrotation
					JOINT rtoes
					{
						OFFSET -0.164730 -0.452590 2.363150
						CHANNELS 3 Zrotation Yrotation Xrotation
						End Site
						{
							OFFSET 0.000000 0.000000 0.000000
						}
					}
				}
			}
		}
	}
	JOINT lowerback
	{
		OFFSET 0.000000 0.000000 0.000000
		CHANNELS 3 Zrotation Yrotation Xrotation
		JOINT upperback
		{
			OFFSET 0.028270 2.035590 -0.193380
			CHANNELS 3 Zrotation Yrotation Xrotation
			JOINT thorax
			{
				OFFSET 0.056720 2.048850 -0.042750
				CHANNELS 3 Zrotation Yrotation Xrotation
				JOINT lowerneck
				{
					OFFSET 0.000000 0.000000 0.000000
					CHANNELS 3 Zrotation Yrotation Xrotation
					JOINT upperneck
					{
						OFFSET -0.054170 1.746240 0.172020
						CHANNELS 3 Zrotation Yrotation Xrotation
						JOINT head
						{
							OFFSET 0.104070 1.761360 -0.123970
							CHANNELS 3 Zrotation Yrotation Xrotation
							End Site
							{
								OFFSET 0.000000 0.000000 0.000000
							}
						}
					}
				}
				JOINT lclavicle
				{
					OFFSET 0.000000 0.000000 0.000000
					CHANNELS 3 Zrotation Yrotation Xrotation
					JOINT lhumerus
					{
						OFFSET 3.362410 1.200890 -0.311210
						CHANNELS 3 Zrotation Yrotation Xrotation
						JOINT lradius
						{
							OFFSET 4.983000 -0.000000 -0.000000
							CHANNELS 3 Zrotation Yrotation Xrotation
							JOINT lwrist
							{
								OFFSET 3.483560 -0.000000 -0.000000
								CHANNELS 3 Zrotation Yrotation Xrotation
								JOINT lhand
								{
									OFFSET 0.000000 0.000000 0.000000
									CHANNELS 3 Zrotation Yrotation Xrotation
									JOINT lfingers
									{
										OFFSET 0.715260 -0.000000 -0.000000
										CHANNELS 3 Zrotation Yrotation Xrotation
										End Site
										{
											OFFSET 0.000000 0.000000 0.000000
										}
									}
								}
								JOINT lthumb
								{
									OFFSET 0.000000 0.000000 0.000000
									CHANNELS 3 Zrotation Yrotation Xrotation
									End Site
									{
										OFFSET 0.000000 0.000000 0.000000
									}
								}
							}
						}
					}
				}
				JOINT rclavicle
				{
					OFFSET 0.000000 0.000000 0.000000
					CHANNELS 3 Zrotation Yrotation Xrotation
					JOINT rhumerus
					{
						OFFSET -3.136600 1.374050 -0.404650
						CHANNELS 3 Zrotation Yrotation Xrotation
						JOINT rradius
						{
							OFFSET -5.241900 -0.000000 -0.000000
							CHANNELS 3 Zrotation Yrotation Xrotation
							JOINT rwrist
							{
								OFFSET -3.444170 -0.000000 -0.000000
								CHANNELS 3 Zrotation Yrotation Xrotation
								JOINT rhand
								{
									OFFSET 0.000000 0.000000 0.000000
									CHANNELS 3 Zrotation Yrotation Xrotation
									JOINT rfingers
									{
										OFFSET -0.622530 -0.000000 -0.000000
										CHANNELS 3 Zrotation Yrotation Xrotation
										End Site
										{
											OFFSET 0.000000 0.000000 0.000000
										}
									}
								}
								JOINT rthumb
								{
									OFFSET 0.000000 0.000000 0.000000
									CHANNELS 3 Zrotation Yrotation Xrotation
									End Site
									{
										OFFSET 0.000000 0.000000 0.000000
									}
								}
							}
						}
					}
				}
			}
		}
	}
}
MOTION
Frames: 10
Frame Time: 0.008333
0.913991 17.391006 -3.109361 -174.409587 -17.807610 160.645472 7.222520 1.775736 -1.553023 -12.918552 7.124323 19.389933 0.648030 4.147030 14.945796 0.509888 2.712550 12.539122 2.288000 -9.441800 -27.187200 -12.903661 -2.713082 -5.526913 40.488207 -9.616075 14.607640 -2.975884 -8.563117 27.479403 4.758666 -17.369186 -4.130768 -0.076700 -1.786100 4.914800 0.379625 -1.929455 16.241544 0.951823 -2.757554 -2.545018 6.996737 -1.643611 2.699645 -9.281228 -7.769346 -18.052704 6.765785 -9.468894 8.350272 4.139400 -4.438900 7.062000 -6.128134 -3.521286 3.018741 55.010543 -34.468345 -64.597083 51.081356 -60.640037 -25.021845 -0.970744 -1.288412 -97.891074 20.960330 -4.496111 -2.295200 -7.125000 0.000000 0.000000 -3.411800 23.873200 1.742100 6.583752 3.283586 4.956910 -60.003314 45.853472 -87.835087 -51.763889 64.188353 -27.048419 1.265170 -1.482690 -21.433938 -39.084821 1.048420 -2.802200 7.125000 0.000000 0.000000 -9.891400 -25.581700 -4.717400 
0.906826 17.387821 -3.095728 -174.419074 -17.905311 160.614899 7.208115 1.776919 -1.548096 -13.010250 7.002430 19.538745 0.622160 4.067010 14.715566 0.491118 2.761287 12.530862 2.257700 -9.383500 -27.002400 -12.913699 -2.717705 -5.515003 40.444101 -9.614035 14.526626 -3.000501 -8.597631 27.596525 4.777052 -17.426388 -4.153033 -0.070100 -1.708700 4.701200 0.300466 -1.920892 16.267564 0.971144 -2.755461 -2.550273 7.051265 -1.686272 2.955770 -9.378117 -7.846795 -18.358882 6.836314 -9.543425 8.322135 4.152000 -4.469100 7.123200 -6.331032 -3.163708 3.103875 58.530278 -36.037655 -69.244979 50.078109 -61.062097 -24.199553 -1.071809 -1.095020 -99.688759 20.431450 -3.957956 -2.043300 -7.125000 0.000000 0.000000 -3.987300 24.357300 1.992500 6.761528 2.857371 5.285947 -63.773276 46.630893 -90.414668 -49.102982 63.782239 -25.181608 1.238124 -1.470195 -20.703768 -38.093234 1.734343 -3.192000 7.125000 0.000000 0.000000 -9.073800 -24.875400 -4.468600 
0.898866 17.385433 -3.081399 -174.381587 -18.026515 160.607547 7.193006 1.780051 -1.542904 -13.071166 6.844328 19.613077 0.602003 4.002204 14.529748 0.475189 2.808290 12.557130 2.210200 -9.290800 -26.709100 -12.927923 -2.729717 -5.498168 40.429003 -9.636573 14.385364 -3.022495 -8.634326 27.711521 4.778541 -17.434585 -4.178847 -0.069600 -1.702500 4.684200 0.266610 -1.919489 16.261207 0.991124 -2.758421 -2.555687 7.081470 -1.728545 3.212027 -9.403129 -7.916076 -18.666784 6.880645 -9.615183 8.291888 4.125200 -4.497200 7.172800 -6.530244 -2.811513 3.203040 62.015158 -37.483130 -73.976534 48.738791 -61.288857 -23.252120 -1.148161 -0.895010 -101.291526 19.648840 -3.567571 -1.817000 -7.125000 0.000000 0.000000 -4.759200 24.738400 2.338500 6.949577 2.451021 5.561148 -67.355305 47.237763 -93.296314 -46.217024 63.154938 -23.242363 1.213578 -1.447491 -19.735407 -36.918831 2.823517 -3.820700 7.125000 0.000000 0.000000 -8.091100 -23.720700 -4.193000 
0.891104 17.382149 -3.067169 -174.354189 -18.134357 160.587389 7.180220 1.782132 -1.538925 -13.142673 6.699483 19.685383 0.585224 3.951686 14.386044 0.468078 2.829726 12.581497 2.176600 -9.224600 -26.500600 -12.937919 -2.739905 -5.485275 40.384270 -9.692020 14.251187 -3.046264 -8.673932 27.834994 4.776765 -17.433308 -4.169186 -0.063300 -1.622900 4.464600 0.201274 -1.908019 16.286475 1.007330 -2.752452 -2.559261 7.139454 -1.760045 3.400905 -9.433775 -7.981146 -18.879023 6.934867 -9.691050 8.255024 4.116500 -4.527800 7.198800 -6.705189 -2.519496 3.307696 64.882514 -38.738687 -78.173202 47.819093 -61.524196 -22.668744 -1.205840 -0.721950 -102.681253 18.765334 -3.320716 -1.637600 -7.125000 0.000000 0.000000 -5.584700 24.996500 2.714000 7.115037 2.117261 5.751302 -70.355919 47.676195 -96.050010 -43.623779 62.470396 -21.560837 1.201162 -1.422966 -18.688612 -35.727542 4.054055 -4.494000 7.125000 0.000000 0.000000 -7.103500 -22.418000 -3.886800 
0.883641 17.379263 -3.052740 -174.322659 -18.275170 160.558948 7.168589 1.785070 -1.533213 -13.191844 6.584756 19.697019 0.571045 3.920043 14.300983 0.494505 2.759273 12.629267 2.155400 -9.182500 -26.367900 -12.948121 -2.748133 -5.474644 40.348213 -9.739849 14.133844 -3.067838 -8.709283 27.947711 4.779496 -17.444702 -4.203085 -0.063000 -1.618900 4.453500 0.104411 -1.915378 16.341608 1.024043 -2.774098 -2.564325 7.238900 -1.800999 3.506963 -9.455234 -8.020897 -18.992432 6.981573 -9.737851 8.207279 4.104200 -4.545700 7.184300 -6.834369 -2.300882 3.414683 66.968932 -39.756666 -81.514052 47.325822 -61.764792 -22.398412 -1.239201 -0.581291 -103.724834 17.751117 -3.232374 -1.502300 -7.125000 0.000000 0.000000 -6.474000 25.118000 3.132700 7.257929 1.869876 5.859841 -72.786020 47.959565 -98.681594 -41.326656 61.746350 -20.119424 1.200047 -1.398775 -17.572532 -34.580242 5.330741 -5.146500 7.125000 0.000000 0.000000 -6.165400 -21.078300 -3.555800 
0.875879 17.376776 -3.038709 -174.302226 -18.448740 160.563903 7.160047 1.788992 -1.527752 -13.270506 6.445084 19.649273 0.561948 3.907795 14.269815 0.527483 2.670735 12.674064 2.151700 -9.175100 -26.344700 -12.957285 -2.759500 -5.463651 40.282897 -9.819576 13.972639 -3.090534 -8.745092 28.056936 4.781751 -17.456125 -4.207313 -0.061100 -1.594600 4.386400 -0.010861 -1.916700 16.368036 1.036688 -2.791754 -2.568776 7.333642 -1.830621 3.576358 -9.453174 -8.072295 -19.071623 7.025976 -9.807408 8.168986 4.085800 -4.573900 7.178000 -6.927253 -2.140973 3.520320 68.528681 -40.565834 -84.212649 46.998269 -61.952867 -22.248891 -1.253266 -0.461672 -104.259835 16.707451 -3.196890 -1.382200 -7.125000 0.000000 0.000000 -7.357100 25.203100 3.551700 7.371910 1.707131 5.879270 -74.510099 48.059206 -101.019782 -39.438901 61.026860 -18.965898 1.206618 -1.384602 -16.413097 -33.412286 6.482152 -5.657300 7.125000 0.000000 0.000000 -5.242000 -19.901900 -3.157600 
0.868117 17.373989 -3.025674 -174.266825 -18.627971 160.564676 7.152273 1.791917 -1.523285 -13.322582 6.328928 19.553216 0.557362 3.914871 14.296982 0.579630 2.528776 12.727530 2.130400 -9.132500 -26.210700 -12.966168 -2.771437 -5.455109 40.218229 -9.919835 13.814167 -3.110756 -8.779471 28.159259 4.774819 -17.440267 -4.203247 -0.057700 -1.550100 4.263900 -0.127057 -1.920040 16.396120 1.048342 -2.813642 -2.571046 7.423531 -1.855941 3.612909 -9.402262 -8.110587 -19.123708 7.048237 -9.863599 8.131424 4.039100 -4.595300 7.158700 -6.972641 -2.042100 3.628651 69.627305 -41.157387 -86.269417 46.666817 -62.036671 -22.093888 -1.241940 -0.364782 -104.098881 15.608695 -3.072574 -1.233400 -7.125000 0.000000 0.000000 -8.254400 25.400100 3.954800 7.451410 1.639200 5.818041 -75.188540 47.978235 -102.378639 -38.464633 60.550722 -18.368873 1.214268 -1.397248 -15.505990 -32.241420 7.236324 -5.881200 7.125000 0.000000 0.000000 -4.357000 -19.171700 -2.692300 
0.859460 17.370805 -3.012041 -174.206577 -18.823621 160.570553 7.145531 1.794587 -1.519406 -13.340533 6.236600 19.403893 0.556108 3.939368 14.378278 0.657473 2.311943 12.778687 2.151200 -9.174100 -26.341600 -12.977257 -2.786315 -5.444678 40.177941 -10.028351 13.636569 -3.129569 -8.813834 28.256622 4.774411 -17.443892 -4.213061 -0.054400 -1.504400 4.138000 -0.214274 -1.929415 16.423786 1.059680 -2.840209 -2.573554 7.518563 -1.873919 3.586216 -9.363301 -8.147832 -19.101232 7.068020 -9.920839 8.088998 4.005900 -4.618600 7.124300 -6.974679 -2.022533 3.720024 70.232371 -41.453247 -87.462368 46.350449 -62.024812 -21.917566 -1.208575 -0.298276 -103.461062 14.570661 -2.931646 -1.093600 -7.125000 0.000000 0.000000 -9.076200 25.620700 4.310400 7.480278 1.668799 5.705408 -74.767411 47.698822 -102.379187 -38.423596 60.371093 -18.308115 1.214347 -1.432379 -15.031773 -31.115188 7.559369 -5.836800 7.125000 0.000000 0.000000 -3.532400 -18.909700 -2.201200 
0.850504 17.367422 -2.999602 -174.173552 -19.042159 160.571242 7.140689 1.796606 -1.513487 -13.370894 6.183467 19.227441 0.558018 3.983428 14.517467 0.757964 2.028941 12.830454 2.151100 -9.173900 -26.340900 -12.982562 -2.798000 -5.440590 40.059263 -10.222044 13.459777 -3.146846 -8.843655 28.340658 4.754631 -17.390680 -4.170594 -0.050100 -1.444400 3.972500 -0.345780 -1.951889 16.476512 1.069021 -2.890105 -2.577147 7.625663 -1.897187 3.504810 -9.321494 -8.175182 -19.036122 7.094695 -9.968581 8.049734 3.980200 -4.637100 7.088200 -6.939326 -2.070981 3.787509 70.364717 -41.452222 -87.675915 45.938397 -61.889421 -21.631404 -1.153301 -0.266013 -102.489472 13.632177 -2.768179 -0.964600 -7.125000 0.000000 0.000000 -9.794700 25.869800 4.603100 7.469489 1.779053 5.555890 -73.594840 47.260071 -101.371705 -38.955485 60.368103 -18.566096 1.206504 -1.478827 -14.826425 -29.911131 7.576507 -5.592300 7.125000 0.000000 0.000000 -2.669100 -18.991000 -1.657000 
0.841051 17.365133 -2.987064 -174.130711 -19.260127 160.590244 7.137507 1.800277 -1.507124 -13.395137 6.129700 18.994119 0.564838 4.042413 14.697475 0.859645 1.740151 12.871661 2.169100 -9.209700 -26.453500 -12.989391 -2.810131 -5.435684 39.958774 -10.390709 13.277749 -3.161472 -8.868886 28.408781 4.736306 -17.341766 -4.126379 -0.048400 -1.419300 3.903400 -0.460697 -1.970249 16.524175 1.077154 -2.931147 -2.580509 7.737022 -1.911210 3.382086 -9.276819 -8.215241 -18.951156 7.103468 -10.028038 8.006729 3.941800 -4.662000 7.053800 -6.864257 -2.185020 3.820867 70.043534 -41.129107 -86.803697 45.391360 -61.617182 -21.186848 -1.071683 -0.262234 -101.368507 12.690058 -2.695696 -0.862300 -7.125000 0.000000 0.000000 -10.487300 26.042300 4.895700 7.430367 1.963534 5.364375 -71.841866 46.660687 -99.377043 -39.787692 60.441433 -18.968093 1.191263 -1.524200 -14.750489 -28.677650 7.476267 -5.278700 7.125000 0.000000 0.000000 -1.785100 -19.204000 -1.099100 
